<?xml version="1.0" standalone="no"?>
<!DOCTYPE svg PUBLIC "-//W3C//DTD SVG 20010904//EN"
 "http://www.w3.org/TR/2001/REC-SVG-20010904/DTD/svg10.dtd">
<svg version="1.0" xmlns="http://www.w3.org/2000/svg"
 width="630.000000pt" height="630.000000pt" viewBox="0 0 630.000000 630.000000"
 preserveAspectRatio="xMidYMid meet">
<metadata>
Created by potrace 1.11, written by Peter Selinger 2001-2013
</metadata>
<g transform="translate(0.000000,630.000000) scale(0.100000,-0.100000)"
fill="#000000" stroke="none">
<path d="M3024 5696 c-191 -44 -365 -215 -407 -402 l-13 -59 -75 -23 c-432
-134 -739 -311 -1023 -590 -388 -382 -621 -847 -692 -1387 -17 -129 -19 -419
-4 -555 108 -969 812 -1777 1756 -2016 218 -55 332 -68 579 -69 390 0 682 66
1022 230 475 229 841 587 1076 1053 118 232 184 433 228 693 31 179 33 532 5
709 -122 776 -584 1414 -1278 1764 -126 63 -329 140 -464 175 -39 11 -41 13
-53 67 -18 77 -83 200 -134 252 -103 105 -228 161 -372 168 -55 2 -113 -2
-151 -10z m-265 -917 c175 -175 433 -214 653 -97 101 54 205 172 244 277 10
25 18 47 19 48 2 5 169 -48 250 -79 482 -187 901 -570 1135 -1037 86 -173 162
-410 197 -620 25 -147 25 -522 0 -666 -79 -455 -284 -854 -601 -1170 -318
-316 -701 -515 -1150 -597 -163 -30 -524 -33 -687 -5 -484 82 -887 295 -1226
650 -470 492 -672 1198 -537 1877 151 760 720 1391 1453 1616 l105 32 40 -82
c28 -58 57 -99 105 -147z"/>
<path d="M3045 3480 c-212 -46 -382 -209 -430 -412 -91 -385 252 -743 635
-664 264 55 443 272 443 536 0 232 -140 433 -359 516 -76 28 -216 40 -289 24z"/>
</g>
</svg>
